<svg xmlns="http://www.w3.org/2000/svg" viewBox="0 0 126.53 65.5"><path d="M211.6,314a1,1,0,0,1-.76-0.78,0.9,0.9,0,0,1,.32-0.92,11.61,11.61,0,0,1,3.13-2.13,8.23,8.23,0,0,1,3.56-.92l0.43-.43q1.58-3.46,2.92-6.8a37.16,37.16,0,0,1,3.28-6.37q-1.73-.43-3.53-1t-3.56-1.19A30.39,30.39,0,0,1,214,292a15.65,15.65,0,0,1-3-2,1.66,1.66,0,0,1-.47-0.32,4.64,4.64,0,0,1-.68-0.68,1.07,1.07,0,0,1-.29-0.61q0-.25.79-0.18a14.07,14.07,0,0,1,2,.43q1,0.29,1.91.5a51.35,51.35,0,0,0,17.42.9,39.14,39.14,0,0,0,8.42-2,24,24,0,0,0,7.2-4,4.15,4.15,0,0,0,1.37-1.87q0.36-1.15,1.15-1a2.48,2.48,0,0,1,1.48,1,6,6,0,0,1,1,2.34,5.15,5.15,0,0,1-.18,2.88,9.19,9.19,0,0,1-2.56,3.78,14.35,14.35,0,0,1-3.78,2.38,22.33,22.33,0,0,1-4.36,1.37,42.94,42.94,0,0,1-4.43.68l-3.06.32-1.73.18a8.52,8.52,0,0,1-.86.07H231a0.52,0.52,0,0,0-.5.29l-1.15,2.59q-0.58,1.3-1.15,2.45l-1.55,3.67q-0.76,1.8-1.62,3.6h0.72q5,0,8.21-.18t5.36-.36q2.12-.18,3.38-0.22a8.7,8.7,0,0,1,2.2.18,1,1,0,0,1,.58,1.21,5.73,5.73,0,0,1-.61,2.1,8.19,8.19,0,0,1-1.37,2,2.26,2.26,0,0,1-1.55.89q-4.82.22-9.47,0.22h-9.18a0.48,0.48,0,0,0-.5.58q-0.79,1.94-1.51,4.25-0.36,1.15-.76,2.45t-0.9,3.53q-0.5,2.23-1.08,5.8t-1.3,9.25a1.18,1.18,0,0,1-.14.65,0.86,0.86,0,0,1-1.22.36,3.14,3.14,0,0,1-1.48-1.44,10.08,10.08,0,0,1-1-2.48,21.69,21.69,0,0,1-.54-3,28.21,28.21,0,0,1-.18-3.13,27.39,27.39,0,0,1,.9-8.5q1.12-4.17,2.27-8l-1.94-.21A6.52,6.52,0,0,1,211.6,314Z" transform="translate(-209.58 -281.13)" style="fill:#1d1d1b"/><path d="M239.54,330.9a19.64,19.64,0,0,1,.58-5.69,20.46,20.46,0,0,1,2.16-5.44,12.91,12.91,0,0,1,3.64-4.07,9,9,0,0,1,5.15-1.66,3.88,3.88,0,0,1,2.34,1.51,3.38,3.38,0,0,1,.47,2.81,10.56,10.56,0,0,1-.83,2.7,8.36,8.36,0,0,1-1.84,2.34q-0.65.58-1.8,1.51t-2.23,1.94a16.37,16.37,0,0,0-1.87,2.05,3.16,3.16,0,0,0-.79,1.76q-0.22,1.87.58,2.41a3.08,3.08,0,0,0,2.05.43,7.92,7.92,0,0,0,2.56-.68q1.3-.58,2.09-1,0.94-.65,2.09-1.62t2.3-2.05l2.23-2.09q1.08-1,1.8-1.66t1-1.08a4.5,4.5,0,0,1,1.12-.86,2.09,2.09,0,0,1,.9-0.07q0.32,0.07-.11,1.08a12.65,12.65,0,0,1-1.4,2.3q-0.83,1.08-1.76,2.16-1.3,1.44-2.77,3a32.06,32.06,0,0,1-3.1,2.92,22.11,22.11,0,0,1-3.38,2.3,10.91,10.91,0,0,1-3.64,1.26,7.94,7.94,0,0,1-5.44-1.37Q239.54,334.5,239.54,330.9Zm11.52-13.54a8.12,8.12,0,0,0-3.06,1.87,7,7,0,0,0-1.62,3.38,29,29,0,0,0,2.84-2.34A7,7,0,0,0,251.06,317.37Z" transform="translate(-209.58 -281.13)"/><path d="M262.5,342.78a1.19,1.19,0,0,0,1.76.86,10.15,10.15,0,0,0,3.1-2.16,42.25,42.25,0,0,0,3.71-4q1.94-2.38,3.71-4.68t3.06-4.18q1.3-1.87,1.73-2.45a7.14,7.14,0,0,1,.83-1.08,11.14,11.14,0,0,1,1.19-1.08c0.19-.14.42-0.3,0.68-0.47a1.08,1.08,0,0,1,.68-0.22c0.19,0,.28.18,0.25,0.47a4.82,4.82,0,0,1-.54,1.44q-0.43.86-1.37,2.63t-2.3,4q-1.37,2.2-3,4.54a39.84,39.84,0,0,1-3.56,4.36,32.78,32.78,0,0,1-3.89,3.53,10.11,10.11,0,0,1-4,1.94,16.06,16.06,0,0,1-3.31.47,3.53,3.53,0,0,1-2.66-1.12,4.69,4.69,0,0,1-1.22-3.1,20.15,20.15,0,0,1,.18-4.28,36.54,36.54,0,0,1,.9-4.39q0.58-2.12.94-3.28,1.15-3.74,2.2-7.38t2.05-7.31q1.08-3.24,2-6.66T267.4,303q-1.44-.07-3-0.11l-3-.07q-1.51,0-3-.18a16.1,16.1,0,0,1-2.77-.5,3.11,3.11,0,0,1-1.69-.94,1.86,1.86,0,0,1-.5-1.3,1.45,1.45,0,0,1,.72-1.12,3.5,3.5,0,0,1,2-.47q0.79,0,2.59.14t3.78,0.22q2,0.07,3.67,0a7.29,7.29,0,0,0,2.2-.25,0.25,0.25,0,0,0,.22-0.22q0.43-1.3.94-2.74t1-2.81q0.5-1.37,1-2.59t0.83-2.09a1,1,0,0,1,1.19-.54,5.53,5.53,0,0,1,1.87.61,6.36,6.36,0,0,1,1.69,1.26,1.83,1.83,0,0,1,.65,1.4,12.68,12.68,0,0,1-1,3.67,25.61,25.61,0,0,0-1.37,4.1l7.81-.11q3.28,0,6.37,0,1,0,2,0a7.47,7.47,0,0,1,1.55.18c0.36,0.1.44,0.23,0.25,0.4a6.52,6.52,0,0,1-1.87.68,68.94,68.94,0,0,1-8.78,2.2q-4.25.76-8.35,1.12c-0.24,0-.35.1-0.32,0.14a0.79,0.79,0,0,1-.18.43,0.21,0.21,0,0,1-.07.14,0.21,0.21,0,0,0-.07.14q-1.15,3.17-2.52,7.13t-2.74,8.14q-1.37,4.18-2.59,8.21t-2.09,7.31q-0.86,3.28-1.26,5.47T262.5,342.78Z" transform="translate(-209.58 -281.13)" /><path d="M301.6,323.05q0.79-.36,1,0a1.12,1.12,0,0,1-.11,1,7.1,7.1,0,0,1-1.08,1.58,13,13,0,0,1-1.44,1.37q-1.66,1.51-2.77,2.48T295.3,331q-0.76.58-1.26,0.94l-0.94.65q-1.66,1-3.28,1.94a14.48,14.48,0,0,1-3.06,1.37,7.68,7.68,0,0,1-4.36,0,5.17,5.17,0,0,1-3.2-2.56,9.09,9.09,0,0,1-1-5.15,16,16,0,0,1,1.48-5.62,14.41,14.41,0,0,1,3.35-4.61,7.34,7.34,0,0,1,4.61-2.05,2.07,2.07,0,0,1,1.62.47,2.63,2.63,0,0,1,1,1.4,2.88,2.88,0,0,1,.07,1.44q-0.15.79-.4,1.76t-0.54,2.12q-0.29,1.15-.5,2.38a0.58,0.58,0,0,1-.4.47,0.5,0.5,0,0,1-.47-0.32,6.14,6.14,0,0,1-1-2.34q-0.18-1.12-.4-2.12a1.83,1.83,0,0,0-1.12.83,12.11,12.11,0,0,0-1.33,2.05,15.07,15.07,0,0,0-1.08,2.63,8.58,8.58,0,0,0-.43,2.48,4.28,4.28,0,0,0,.43,2.16,1.7,1.7,0,0,0,1.08.86,3.29,3.29,0,0,0,1.51-.07,8.41,8.41,0,0,0,1.73-.65q3.82-1.8,7.34-3.85A55.57,55.57,0,0,0,301.6,323.05Z" transform="translate(-209.58 -281.13)" /><path d="M316.79,322.41q-2.74,2.09-5.29,4.07a29.4,29.4,0,0,0-4.64,4.5,35.51,35.51,0,0,0-2.27,3.13,18.5,18.5,0,0,0-1.69,3.28,1,1,0,0,1-1.37.29,6.56,6.56,0,0,1-2.38-3.31,13.23,13.23,0,0,1-.61-4.28,23.24,23.24,0,0,1,.5-4.46q0.47-2.2,1-3.85,1.15-4.17,2.63-8.6t3.17-8.75q1.69-4.32,3.53-8.35t3.56-7.49a20,20,0,0,1,2-3.17,12.28,12.28,0,0,1,2.23-2.23,2.37,2.37,0,0,1,1.33-.54,2.5,2.5,0,0,1,1.26.25,2.69,2.69,0,0,1,1,.83,2.39,2.39,0,0,1,.47,1.12,18.1,18.1,0,0,1-.65,7.13,50.89,50.89,0,0,1-3,8.1,64.24,64.24,0,0,1-4.14,7.63,36.22,36.22,0,0,1-4.28,5.65,0.81,0.81,0,0,0-.29.43q-1.15,3-2,5.9T305,325.43q-0.15.79-.32,1.66a8.4,8.4,0,0,0-.18,1.73,15.07,15.07,0,0,1,1.87-2.09q2.23-2.16,4.68-4.1a31.69,31.69,0,0,1,5.26-3.38,13.44,13.44,0,0,1,2.27-.9,3.84,3.84,0,0,1,2.27,0,7.56,7.56,0,0,1,1.87.72,2.09,2.09,0,0,1,1,1.51,5.72,5.72,0,0,1-.25,1.8q-0.72,2.66-1.84,5.83l-2.12,6q-1,2.84-1.73,4.9a6.07,6.07,0,0,0-.58,2.48c0.24,0.48.71,0.5,1.4,0.07a15.83,15.83,0,0,0,2.52-2.09q1.48-1.44,3.24-3.46t3.53-4.07q1.76-2.05,3.42-3.89t2.81-2.92a1.91,1.91,0,0,1,1.58-.79q0.65,0.15.22,1.51-0.58,1-1.87,2.92T331,333.13q-1.77,2.3-3.78,4.68t-4,4.32a30.43,30.43,0,0,1-3.78,3.2,5.74,5.74,0,0,1-3.1,1.26,5.81,5.81,0,0,1-2.41-.5,5.56,5.56,0,0,1-1.91-1.4,6,6,0,0,1-1.19-2.09,6.25,6.25,0,0,1-.25-2.63,10.93,10.93,0,0,1,.22-1.19q0.14-.61.36-1.48,0.79-2.09,1.48-4.18t1.48-4.18a43.47,43.47,0,0,1,3-6.26v-0.14C317.15,322.46,317,322.41,316.79,322.41Zm-7.34-11.59a11.42,11.42,0,0,0,1.84-2.16,38.54,38.54,0,0,0,2.45-4q1.26-2.3,2.52-4.93t2.16-5.08a30.72,30.72,0,0,0,1.3-4.39,4.44,4.44,0,0,0-.11-2.88q-0.79,1.73-2.2,4.93t-2.92,6.73q-1.51,3.53-2.92,6.77T309.45,310.81Z" transform="translate(-209.58 -281.13)" /></svg>